<svg xmlns="http://www.w3.org/2000/svg" enable-background="new 0 0 2000 2000" viewBox="0 0 2000 2000"><path d="M1182.3 1312.1H577.4c-11.6 0-21-9.4-21-21s9.4-21 21-21h604.9c11.6 0 21 9.4 21 21S1193.8 1312.1 1182.3 1312.1zM363.4 947c-11.6 0-21-9.4-21-21V534.4c0-41.1 33.5-74.6 74.6-74.6h1060.3c41.1 0 74.6 33.5 74.6 74.6v239c0 11.6-9.4 21-21 21s-21-9.4-21-21v-239c0-18-14.6-32.6-32.6-32.6H417c-18 0-32.6 14.6-32.6 32.6V926C384.4 937.6 375 947 363.4 947zM1182.3 1133.2H577.4c-11.6 0-21-9.4-21-21s9.4-21 21-21h604.9c11.6 0 21 9.4 21 21S1193.8 1133.2 1182.3 1133.2z"/><circle cx="947.1" cy="1201.6" r="25.9"/><path d="M861.1 1426.7c-11.6 0-21-9.4-21-21v-114.6c0-11.6 9.4-21 21-21s21 9.4 21 21v114.6C882.1 1417.3 872.7 1426.7 861.1 1426.7zM1033.2 1426.7c-11.6 0-21-9.4-21-21v-114.6c0-11.6 9.4-21 21-21s21 9.4 21 21v114.6C1054.2 1417.3 1044.8 1426.7 1033.2 1426.7z"/><path d="M1202.3 1540.1H644.9c-11.6 0-21-9.4-21-21v-13.4c0-63.3 51.5-114.8 114.8-114.8h417c11.1 0 22.1 1.6 32.6 4.7 11.1 3.3 17.5 15 14.2 26.1-3.3 11.1-15 17.5-26.1 14.2-6.7-2-13.6-3-20.7-3h-417c-37.6 0-68.6 28.6-72.4 65.2h536c11.6 0 21 9.4 21 21S1213.9 1540.1 1202.3 1540.1zM561.5 1540.1H271.9c-20.4 0-36.9-16.6-36.9-36.9V941.9c0-20.4 16.6-36.9 36.9-36.9h289.5c20.4 0 36.9 16.6 36.9 36.9v561.2C598.4 1523.6 581.8 1540.1 561.5 1540.1zM277 1498.1h279.4V947H277V1498.1z"/><path d="M577.4 1033.5H256c-11.6 0-21-9.4-21-21 0-11.6 9.4-21 21-21h321.4c11.6 0 21 9.4 21 21C598.4 1024.1 589 1033.5 577.4 1033.5zM577.4 1453.6H256c-11.6 0-21-9.4-21-21s9.4-21 21-21h321.4c11.6 0 21 9.4 21 21S589 1453.6 577.4 1453.6z"/><g><path d="M1724,1540.1h-521.7c-22.6,0-41-18.4-41-41V793.5c0-22.6,18.4-41,41-41H1724c22.6,0,41,18.4,41,41v705.6C1765,1521.7,1746.6,1540.1,1724,1540.1z M1203.3,1498.1H1723V794.4h-519.8V1498.1z"/><path d="M1674,1429h-421.8c-11.6,0-21-9.4-21-21V843.4c0-11.6,9.4-21,21-21H1674c11.6,0,21,9.4,21,21V1408C1695,1419.6,1685.6,1429,1674,1429z M1273.3,1387H1653V864.4h-379.8V1387z"/><circle cx="1463.1" cy="1463.6" r="19.9"/></g></svg>